<svg width="16" height="16" viewBox="0 0 16 16" fill="none" xmlns="http://www.w3.org/2000/svg">
<path d="M10.1935 5.13977L8.76679 3.70687V3.60643H8.66679L8.59593 3.67699L8.66679 3.74817L10.1935 5.13977ZM10.1935 5.13977C10.2554 5.20225 10.3292 5.25185 10.4104 5.2857M10.1935 5.13977L10.4104 5.2857M10.4104 5.2857C10.4916 5.31954 10.5788 5.33697 10.6668 5.33697M10.4104 5.2857L10.6668 5.33697M10.6668 5.33697C10.7548 5.33697 10.8419 5.31954 10.9232 5.2857M10.6668 5.33697L10.9232 5.2857M10.9232 5.2857C11.0044 5.25185 11.0781 5.20225 11.1401 5.13977L10.9232 5.2857ZM8.73765 12.4637L10.2642 10.9305L10.2643 10.9303C10.3711 10.8236 10.5158 10.7637 10.6668 10.7637C10.7416 10.7637 10.8156 10.7784 10.8847 10.807C10.9538 10.8357 11.0165 10.8776 11.0694 10.9305C11.1762 11.0373 11.2362 11.1821 11.2362 11.3331C11.2362 11.4841 11.1762 11.6289 11.0694 11.7357L8.40354 14.4016C8.34981 14.4528 8.28654 14.493 8.21731 14.5199L8.21727 14.5198L8.21303 14.5216C8.14596 14.5513 8.07345 14.5666 8.00012 14.5666C7.9268 14.5666 7.85428 14.5513 7.78722 14.5216L7.78726 14.5215L7.78294 14.5199C7.71371 14.493 7.65043 14.4528 7.59671 14.4016L4.93083 11.7357C4.82405 11.6289 4.76406 11.4841 4.76406 11.3331C4.76406 11.1821 4.82405 11.0373 4.93083 10.9305C5.03762 10.8237 5.18244 10.7637 5.33346 10.7637C5.4844 10.7637 5.62916 10.8236 5.73593 10.9303L5.73608 10.9305L7.26259 12.4637L7.43346 12.6353V12.3931V3.60643V3.36427L7.26259 3.53588L5.73608 5.06906C5.73606 5.06907 5.73605 5.06909 5.73604 5.0691C5.68317 5.12195 5.62042 5.16388 5.55136 5.19249C5.48227 5.2211 5.40823 5.23583 5.33346 5.23583C5.25868 5.23583 5.18464 5.2211 5.11556 5.19249C5.04648 5.16387 4.98371 5.12193 4.93083 5.06906C4.87796 5.01618 4.83602 4.95342 4.80741 4.88433C4.77879 4.81525 4.76406 4.74121 4.76406 4.66644C4.76406 4.59166 4.77879 4.51762 4.80741 4.44854C4.83602 4.37945 4.87796 4.31669 4.93083 4.26381L7.5967 1.59795C7.65043 1.5467 7.71371 1.50652 7.78294 1.47967L7.78295 1.47969L7.78479 1.47893C7.92275 1.42226 8.0775 1.42226 8.21546 1.47893L8.21545 1.47895L8.21731 1.47967C8.28654 1.50652 8.34982 1.5467 8.40355 1.59795L11.0694 4.26381L11.0697 4.2641C11.1228 4.31678 11.165 4.37946 11.1937 4.44851C11.2225 4.51756 11.2373 4.59163 11.2373 4.66644C11.2373 4.74124 11.2225 4.81531 11.1937 4.88436C11.165 4.95341 11.1228 5.01609 11.0697 5.06877L11.0691 5.06935C11.0164 5.12246 10.9538 5.16462 10.8847 5.19339C10.8157 5.22216 10.7416 5.23697 10.6668 5.23697C10.592 5.23697 10.5179 5.22216 10.4489 5.19339C10.3798 5.16462 10.3171 5.12246 10.2645 5.06935L10.2643 5.06921L8.73765 3.53588L8.56679 3.36427V3.60643V12.3931V12.6353L8.73765 12.4637Z" fill="#484038" stroke="white" stroke-width="0.2"/>
</svg>
