<svg width="16" height="16" viewBox="0 0 16 16" fill="none" xmlns="http://www.w3.org/2000/svg">
<path d="M10.8602 10.1935L12.2931 8.76679L12.3936 8.76679L12.3936 8.66679L12.323 8.59593L12.2518 8.66679L10.8602 10.1935ZM10.8602 10.1935C10.7977 10.2554 10.7481 10.3292 10.7143 10.4104M10.8602 10.1935L10.7143 10.4104M10.7143 10.4104C10.6805 10.4916 10.663 10.5788 10.663 10.6668M10.7143 10.4104L10.663 10.6668M10.663 10.6668C10.663 10.7548 10.6805 10.8419 10.7143 10.9232M10.663 10.6668L10.7143 10.9232M10.7143 10.9232C10.7481 11.0044 10.7977 11.0781 10.8602 11.1401L10.7143 10.9232ZM3.53634 8.73765L5.06952 10.2642L5.06967 10.2643C5.17636 10.3711 5.23629 10.5158 5.23629 10.6668C5.23629 10.7416 5.22156 10.8156 5.19295 10.8847C5.16434 10.9538 5.12239 11.0165 5.06952 11.0694C4.96274 11.1762 4.81791 11.2362 4.6669 11.2362C4.51589 11.2362 4.37106 11.1762 4.26428 11.0694L1.5984 8.40354C1.54716 8.34981 1.50698 8.28653 1.48013 8.21731L1.48023 8.21727L1.47836 8.21303C1.44872 8.14596 1.43341 8.07345 1.43341 8.00012C1.43341 7.9268 1.44872 7.85428 1.47836 7.78722L1.47846 7.78726L1.48013 7.78294C1.50698 7.71371 1.54716 7.65043 1.5984 7.59671L4.26428 4.93083C4.37106 4.82405 4.51589 4.76406 4.6669 4.76406C4.81791 4.76406 4.96274 4.82405 5.06952 4.93083C5.1763 5.03762 5.23629 5.18244 5.23629 5.33346C5.23629 5.4844 5.17636 5.62916 5.06967 5.73593L5.06952 5.73608L3.53634 7.26259L3.36473 7.43346L3.6069 7.43346L12.3936 7.43346L12.6357 7.43346L12.4641 7.26259L10.9309 5.73608C10.9309 5.73606 10.9309 5.73605 10.9309 5.73604C10.878 5.68317 10.8361 5.62042 10.8075 5.55135C10.7789 5.48227 10.7642 5.40823 10.7642 5.33346C10.7642 5.25868 10.7789 5.18464 10.8075 5.11556C10.8361 5.04648 10.8781 4.98371 10.9309 4.93083C10.9838 4.87796 11.0466 4.83602 11.1157 4.80741C11.1847 4.77879 11.2588 4.76406 11.3336 4.76406C11.4083 4.76406 11.4824 4.77879 11.5515 4.80741C11.6205 4.83602 11.6833 4.87796 11.7362 4.93083L14.4021 7.5967C14.4533 7.65043 14.4935 7.71371 14.5203 7.78294L14.5203 7.78295L14.5211 7.78479C14.5777 7.92275 14.5777 8.0775 14.5211 8.21546L14.521 8.21545L14.5203 8.21731C14.4935 8.28654 14.4533 8.34982 14.4021 8.40355L11.7362 11.0694L11.7359 11.0697C11.6832 11.1228 11.6205 11.165 11.5515 11.1937C11.4824 11.2225 11.4084 11.2373 11.3336 11.2373C11.2588 11.2373 11.1847 11.2225 11.1156 11.1937C11.0466 11.165 10.9839 11.1228 10.9312 11.0697L10.9307 11.0691C10.8775 11.0164 10.8354 10.9538 10.8066 10.8847C10.7778 10.8157 10.763 10.7416 10.763 10.6668C10.763 10.592 10.7778 10.5179 10.8066 10.4489C10.8354 10.3798 10.8775 10.3171 10.9307 10.2645L10.9308 10.2643L12.4641 8.73765L12.6357 8.56679L12.3936 8.56679L3.6069 8.56679L3.36473 8.56679L3.53634 8.73765Z" fill="#484038" stroke="white" stroke-width="0.2"/>
</svg>
