<svg width="74" height="19" viewBox="0 0 74 19" fill="none" xmlns="http://www.w3.org/2000/svg">
<path d="M9.744 18.264C8.448 18.264 7.248 18.048 6.144 17.616C5.056 17.168 4.096 16.544 3.264 15.744C2.448 14.944 1.808 14.016 1.344 12.96C0.896 11.888 0.672 10.728 0.672 9.48C0.672 8.216 0.904 7.056 1.368 6C1.848 4.928 2.512 4 3.36 3.216C4.208 2.416 5.192 1.8 6.312 1.368C7.448 0.92 8.656 0.696 9.936 0.696C11.456 0.696 12.832 0.967999 14.064 1.512C15.296 2.04 16.296 2.776 17.064 3.72L14.184 6.6C13.608 5.912 12.976 5.4 12.288 5.064C11.6 4.712 10.8 4.536 9.888 4.536C8.96 4.536 8.128 4.744 7.392 5.16C6.672 5.56 6.096 6.128 5.664 6.864C5.232 7.6 5.016 8.464 5.016 9.456C5.016 10.448 5.216 11.32 5.616 12.072C6.032 12.824 6.592 13.408 7.296 13.824C8.016 14.24 8.84 14.448 9.768 14.448C10.696 14.448 11.48 14.272 12.12 13.92C12.776 13.568 13.272 13.056 13.608 12.384C13.96 11.712 14.136 10.912 14.136 9.984L17.04 11.856L9.288 11.664V8.16H18.456V8.808C18.456 10.84 18.088 12.56 17.352 13.968C16.616 15.376 15.592 16.448 14.28 17.184C12.984 17.904 11.472 18.264 9.744 18.264ZM26.1364 18.264C24.8244 18.264 23.6644 18.008 22.6564 17.496C21.6484 16.968 20.8564 16.24 20.2804 15.312C19.7044 14.384 19.4164 13.32 19.4164 12.12C19.4164 10.936 19.6964 9.888 20.2564 8.976C20.8164 8.048 21.5764 7.32 22.5364 6.792C23.5124 6.248 24.6084 5.976 25.8244 5.976C27.0084 5.976 28.0564 6.232 28.9684 6.744C29.8964 7.24 30.6164 7.936 31.1284 8.832C31.6564 9.712 31.9204 10.72 31.9204 11.856C31.9204 12.096 31.9044 12.344 31.8724 12.6C31.8564 12.84 31.8084 13.12 31.7284 13.44L21.3844 13.488V10.8L30.0724 10.728L28.2004 11.904C28.1844 11.248 28.0884 10.712 27.9124 10.296C27.7364 9.864 27.4804 9.536 27.1444 9.312C26.8084 9.088 26.3844 8.976 25.8724 8.976C25.3444 8.976 24.8884 9.104 24.5044 9.36C24.1204 9.616 23.8244 9.976 23.6164 10.44C23.4084 10.904 23.3044 11.464 23.3044 12.12C23.3044 12.792 23.4164 13.368 23.6404 13.848C23.8644 14.312 24.1844 14.664 24.6004 14.904C25.0164 15.144 25.5284 15.264 26.1364 15.264C26.7124 15.264 27.2164 15.168 27.6484 14.976C28.0964 14.784 28.4964 14.488 28.8484 14.088L31.0324 16.272C30.4564 16.928 29.7524 17.424 28.9204 17.76C28.1044 18.096 27.1764 18.264 26.1364 18.264ZM35.1054 18V1.416H39.2814V18H35.1054ZM32.5134 9.744V6.264H49.4814V9.744H32.5134ZM42.7134 18V1.416H46.8894V18H42.7134ZM56.6754 18.264C55.3634 18.264 54.2034 18.008 53.1954 17.496C52.1874 16.968 51.3954 16.24 50.8194 15.312C50.2434 14.384 49.9554 13.32 49.9554 12.12C49.9554 10.936 50.2354 9.888 50.7954 8.976C51.3554 8.048 52.1154 7.32 53.0754 6.792C54.0514 6.248 55.1474 5.976 56.3634 5.976C57.5474 5.976 58.5954 6.232 59.5074 6.744C60.4354 7.24 61.1554 7.936 61.6674 8.832C62.1954 9.712 62.4594 10.72 62.4594 11.856C62.4594 12.096 62.4434 12.344 62.4114 12.6C62.3954 12.84 62.3474 13.12 62.2674 13.44L51.9234 13.488V10.8L60.6114 10.728L58.7394 11.904C58.7234 11.248 58.6274 10.712 58.4514 10.296C58.2754 9.864 58.0194 9.536 57.6834 9.312C57.3474 9.088 56.9234 8.976 56.4114 8.976C55.8834 8.976 55.4274 9.104 55.0434 9.36C54.6594 9.616 54.3634 9.976 54.1554 10.44C53.9474 10.904 53.8434 11.464 53.8434 12.12C53.8434 12.792 53.9554 13.368 54.1794 13.848C54.4034 14.312 54.7234 14.664 55.1394 14.904C55.5554 15.144 56.0674 15.264 56.6754 15.264C57.2514 15.264 57.7554 15.168 58.1874 14.976C58.6354 14.784 59.0354 14.488 59.3874 14.088L61.5714 16.272C60.9954 16.928 60.2914 17.424 59.4594 17.76C58.6434 18.096 57.7154 18.264 56.6754 18.264ZM64.0365 18V6.264H68.2125V18H64.0365ZM68.2125 11.616L66.3405 10.032C66.8045 8.704 67.4205 7.704 68.1885 7.032C68.9565 6.36 69.9565 6.024 71.1885 6.024C71.7485 6.024 72.2285 6.096 72.6285 6.24C73.0445 6.384 73.3965 6.608 73.6845 6.912L71.2605 10.152C71.1325 10.008 70.9485 9.896 70.7085 9.816C70.4845 9.72 70.2285 9.672 69.9405 9.672C69.3965 9.672 68.9725 9.84 68.6685 10.176C68.3645 10.496 68.2125 10.976 68.2125 11.616Z" fill="#484038"/>
</svg>
